HIERARCHY
ROOT hip
{
  OFFSET 0.00112043 5.09927 -9.65472
  CHANNELS 6 Xposition Yposition Zposition Zrotation Xrotation Yrotation
  JOINT abdomen
  {
    OFFSET 0 -1.186 -1.5018
    CHANNELS 3 Zrotation Xrotation Yrotation
    JOINT abdomen2
    {
      OFFSET 0 9.964 0.2134
      CHANNELS 3 Zrotation Xrotation Yrotation
      JOINT chest
      {
        OFFSET 0 13.134 -3.2573
        CHANNELS 3 Zrotation Xrotation Yrotation
        JOINT neck
        {
          OFFSET 0 20.686 -1.6905
          CHANNELS 3 Zrotation Xrotation Yrotation
          JOINT head
          {
            OFFSET 0 7.238 -0.1237
            CHANNELS 3 Zrotation Xrotation Yrotation
            End Site
            {
              OFFSET 0 0 0
            }
          }
        }
        JOINT lCollar
        {
          OFFSET 1.7069 20.075 5.0056
          CHANNELS 3 Zrotation Xrotation Yrotation
          JOINT lShldr
          {
            OFFSET 13.6458 -0.047 -4.849
            CHANNELS 3 Zrotation Xrotation Yrotation
            JOINT lForeArm
            {
              OFFSET 28.3255 -0.9759 2.2888
              CHANNELS 3 Zrotation Xrotation Yrotation
              JOINT lHand
              {
                OFFSET 22.1583 -0.53 10.8316
                CHANNELS 3 Zrotation Xrotation Yrotation
                JOINT lThumb1
                {
                  OFFSET 0.786 0.112 2.5817
                  CHANNELS 3 Zrotation Xrotation Yrotation
                  JOINT lThumb2
                  {
                    OFFSET 0.3601 -0.878 4.2331
                    CHANNELS 3 Zrotation Xrotation Yrotation
                    JOINT lThumb2_End
                    {
                      OFFSET 1.8127 -1.216 2.2227
                      CHANNELS 3 Zrotation Xrotation Yrotation
                      End Site
                      {
                        OFFSET 0.0181 -0.0122 0.0222
                      }
                    }
                  }
                }
                JOINT lCarpal1
                {
                  OFFSET 0.9571 1.114 1.7695
                  CHANNELS 3 Zrotation Xrotation Yrotation
                  JOINT lIndex1
                  {
                    OFFSET 4.1246 0.487 4.1451
                    CHANNELS 3 Zrotation Xrotation Yrotation
                    JOINT lIndex2
                    {
                      OFFSET 3.4052 -1.454 2.7682
                      CHANNELS 3 Zrotation Xrotation Yrotation
                      JOINT lIndex2_End
                      {
                        OFFSET 1.4531 -1.795 1.2713
                        CHANNELS 3 Zrotation Xrotation Yrotation
                        End Site
                        {
                          OFFSET 0.0145 -0.0179 0.0127
                        }
                      }
                    }
                  }
                  JOINT lMid1
                  {
                    OFFSET 5.6954 0.21 2.1184
                    CHANNELS 3 Zrotation Xrotation Yrotation
                    JOINT lMid2
                    {
                      OFFSET 3.9766 -1.54 2.3863
                      CHANNELS 3 Zrotation Xrotation Yrotation
                      JOINT lMid2_End
                      {
                        OFFSET 1.4042 -1.926 1.125
                        CHANNELS 3 Zrotation Xrotation Yrotation
                        End Site
                        {
                          OFFSET 0.014 -0.0193 0.0113
                        }
                      }
                    }
                  }
                }
                JOINT lCarpal2
                {
                  OFFSET 2.0956 0.66 -0.3894
                  CHANNELS 3 Zrotation Xrotation Yrotation
                  JOINT lRing1
                  {
                    OFFSET 5.0395 -0.09 2.4971
                    CHANNELS 3 Zrotation Xrotation Yrotation
                    JOINT lRing2
                    {
                      OFFSET 3.7921 -1.552 1.4806
                      CHANNELS 3 Zrotation Xrotation Yrotation
                      JOINT lRing2_End
                      {
                        OFFSET 1.4655 -1.808 0.9609
                        CHANNELS 3 Zrotation Xrotation Yrotation
                        End Site
                        {
                          OFFSET 0.0147 -0.0181 0.0096
                        }
                      }
                    }
                  }
                  JOINT lPinky1
                  {
                    OFFSET 4.9141 -1.269 0.3591
                    CHANNELS 3 Zrotation Xrotation Yrotation
                    JOINT lPinky2
                    {
                      OFFSET 3.1477 -1.685 0.8462
                      CHANNELS 3 Zrotation Xrotation Yrotation
                      JOINT lPinky2_End
                      {
                        OFFSET 0.8055 -1.585 0.7955
                        CHANNELS 3 Zrotation Xrotation Yrotation
                        End Site
                        {
                          OFFSET 0.0081 -0.0158 0.008
                        }
                      }
                    }
                  }
                }
              }
            }
          }
        }
        JOINT rCollar
        {
          OFFSET -1.7069 20.075 5.0056
          CHANNELS 3 Zrotation Xrotation Yrotation
          JOINT rShldr
          {
            OFFSET -13.6458 -0.047 -4.849
            CHANNELS 3 Zrotation Xrotation Yrotation
            JOINT rForeArm
            {
              OFFSET -28.3255 -0.9759 2.2888
              CHANNELS 3 Zrotation Xrotation Yrotation
              JOINT rHand
              {
                OFFSET -22.1583 -0.53 10.8316
                CHANNELS 3 Zrotation Xrotation Yrotation
                JOINT rThumb1
                {
                  OFFSET -0.786 0.112 2.5817
                  CHANNELS 3 Zrotation Xrotation Yrotation
                  JOINT rThumb2
                  {
                    OFFSET -0.3601 -0.878 4.2331
                    CHANNELS 3 Zrotation Xrotation Yrotation
                    JOINT rThumb2_End
                    {
                      OFFSET -1.8127 -1.216 2.2227
                      CHANNELS 3 Zrotation Xrotation Yrotation
                      End Site
                      {
                        OFFSET -0.0181 -0.0122 0.0222
                      }
                    }
                  }
                }
                JOINT rCarpal1
                {
                  OFFSET -0.9571 1.114 1.7695
                  CHANNELS 3 Zrotation Xrotation Yrotation
                  JOINT rIndex1
                  {
                    OFFSET -4.1246 0.487 4.1451
                    CHANNELS 3 Zrotation Xrotation Yrotation
                    JOINT rIndex2
                    {
                      OFFSET -3.4052 -1.454 2.7682
                      CHANNELS 3 Zrotation Xrotation Yrotation
                      JOINT rIndex2_End
                      {
                        OFFSET -1.4531 -1.795 1.2713
                        CHANNELS 3 Zrotation Xrotation Yrotation
                        End Site
                        {
                          OFFSET -0.0145 -0.018 0.0127
                        }
                      }
                    }
                  }
                  JOINT rMid1
                  {
                    OFFSET -5.6954 0.21 2.1184
                    CHANNELS 3 Zrotation Xrotation Yrotation
                    JOINT rMid2
                    {
                      OFFSET -3.9766 -1.54 2.3863
                      CHANNELS 3 Zrotation Xrotation Yrotation
                      JOINT rMid2_End
                      {
                        OFFSET -1.4042 -1.926 1.125
                        CHANNELS 3 Zrotation Xrotation Yrotation
                        End Site
                        {
                          OFFSET -0.014 -0.0193 0.0113
                        }
                      }
                    }
                  }
                }
                JOINT rCarpal2
                {
                  OFFSET -2.0956 0.66 -0.3894
                  CHANNELS 3 Zrotation Xrotation Yrotation
                  JOINT rRing1
                  {
                    OFFSET -5.0395 -0.09 2.4971
                    CHANNELS 3 Zrotation Xrotation Yrotation
                    JOINT rRing2
                    {
                      OFFSET -3.7921 -1.552 1.4806
                      CHANNELS 3 Zrotation Xrotation Yrotation
                      JOINT rRing2_End
                      {
                        OFFSET -1.4655 -1.808 0.9609
                        CHANNELS 3 Zrotation Xrotation Yrotation
                        End Site
                        {
                          OFFSET -0.0147 -0.0181 0.0096
                        }
                      }
                    }
                  }
                  JOINT rPinky1
                  {
                    OFFSET -4.9141 -1.269 0.3592
                    CHANNELS 3 Zrotation Xrotation Yrotation
                    JOINT rPinky2
                    {
                      OFFSET -3.1477 -1.685 0.8462
                      CHANNELS 3 Zrotation Xrotation Yrotation
                      JOINT rPinky2_End
                      {
                        OFFSET -0.8055 -1.585 0.7955
                        CHANNELS 3 Zrotation Xrotation Yrotation
                        End Site
                        {
                          OFFSET -0.0081 -0.0158 0.008
                        }
                      }
                    }
                  }
                }
              }
            }
          }
        }
      }
    }
  }
  JOINT lThigh
  {
    OFFSET 8.367 -8.2066 0.5982
    CHANNELS 3 Zrotation Xrotation Yrotation
    JOINT lShin
    {
      OFFSET 2.1923 -43.463 -0.4932
      CHANNELS 3 Zrotation Xrotation Yrotation
      JOINT lFoot
      {
        OFFSET 0.7333 -45.8593 -2.6451
        CHANNELS 3 Zrotation Xrotation Yrotation
        End Site
        {
          OFFSET 2.6618 -4.2699 12.3931
        }
      }
    }
  }
  JOINT rThigh
  {
    OFFSET -8.367 -8.2066 0.5982
    CHANNELS 3 Zrotation Xrotation Yrotation
    JOINT rShin
    {
      OFFSET -2.1923 -43.463 -0.4931
      CHANNELS 3 Zrotation Xrotation Yrotation
      JOINT rFoot
      {
        OFFSET -0.7333 -45.8593 -2.6451
        CHANNELS 3 Zrotation Xrotation Yrotation
        End Site
        {
          OFFSET -2.6618 -4.2699 12.3931
        }
      }
    }
  }
}
MOTION
Frames:	5
Frame Time:	0.0333333
8.04442 50.4067 6.84825 0 12.9934 -0 2.54335 3.22761 -1.33487 5.17355 6.39173 -2.81872 5.17355 6.39173 -2.81872 -9.86886 -31.6544 -5.28767 -0.0444388 -18.115 -1.34255 -23.9683 -46.8918 -49.951 -29.856 -5.61613 0.362882 -20.2014 17.8458 -4.87281 -7.48692 -13.9784 37.0423 -2.94642e-006 -6.43321e-007 -5.64114e-007 -1.43125e-014 0 1.59028e-015 -8.85774e-007 -2.65992e-008 3.69632e-006 7.95139e-016 0 -0 -2.94642e-006 -6.43321e-007 -5.64114e-007 -9.54166e-015 3.18055e-015 -3.18055e-015 -8.85774e-007 -2.65992e-008 3.69632e-006 -2.94642e-006 -6.43321e-007 -5.64114e-007 -9.54166e-015 3.18055e-015 -3.18055e-015 -8.85774e-007 -2.65992e-008 3.69632e-006 7.95139e-016 0 -0 -2.94642e-006 -6.43321e-007 -5.64114e-007 -9.54166e-015 3.18055e-015 -3.18055e-015 -8.85774e-007 -2.65992e-008 3.69632e-006 -2.94642e-006 -6.43321e-007 -5.64114e-007 -9.54166e-015 3.18055e-015 -3.18055e-015 -8.85774e-007 -2.65992e-008 3.69632e-006 -10.0823 -7.54703 -12.2951 74.6446 -40.9491 17.1544 0.13589 49.8394 68.0957 -16.8687 4.68449 -17.6658 -2.17996e-006 3.80004e-006 -6.57932e-007 -4.05019e-007 -1.495e-006 6.45389e-007 3.97569e-015 3.18055e-015 3.18055e-015 1.43125e-014 3.97569e-015 -0 -2.17996e-006 3.80004e-006 -6.57932e-007 -4.05019e-007 -1.495e-006 6.45389e-007 -6.36111e-015 -3.18055e-015 -0 -2.17996e-006 3.80004e-006 -6.57932e-007 -4.05019e-007 -1.495e-006 6.45389e-007 -6.36111e-015 -3.18055e-015 -0 1.43125e-014 3.97569e-015 -0 -2.17996e-006 3.80004e-006 -6.57932e-007 -4.05019e-007 -1.495e-006 6.45389e-007 -6.36111e-015 -3.18055e-015 -0 -2.17996e-006 3.80004e-006 -6.57932e-007 -4.05019e-007 -1.495e-006 6.45389e-007 -6.36111e-015 -3.18055e-015 -0 4.91767 -16.9085 20.0183 24.2136 86.6132 -20.1901 -23.1976 57.5766 37.9197 -18.1685 -16.7846 -20.228 -23.0275 86.308 18.9298 8.85673 66.2122 -17.1348 
8.04742 50.4661 7.08558 0 11.93 -0 2.57477 3.77369 -1.23492 5.24751 7.48695 -2.64741 5.24752 7.48696 -2.64741 -9.89408 -31.6822 -5.30321 -0.0438239 -18.3243 -1.33247 -24.5185 -48.6708 -50.9104 -30.1014 -5.63838 0.255578 -20.6686 18.0254 -5.25194 -7.13558 -14.2318 37.3422 4.4695e-006 -2.28127e-006 -4.63872e-006 2.71138e-006 -2.33091e-006 2.75677e-006 3.21087e-007 -1.47413e-006 -7.49477e-007 -9.54166e-015 -6.36111e-015 -0 4.4695e-006 -2.28127e-006 -4.63872e-006 2.71138e-006 -2.33091e-006 2.75677e-006 3.21087e-007 -1.47413e-006 -7.49477e-007 4.4695e-006 -2.28127e-006 -4.63872e-006 2.71138e-006 -2.33091e-006 2.75677e-006 3.21087e-007 -1.47413e-006 -7.49477e-007 -9.54166e-015 -6.36111e-015 -0 4.4695e-006 -2.28127e-006 -4.63872e-006 2.71138e-006 -2.33091e-006 2.75677e-006 3.21087e-007 -1.47413e-006 -7.49477e-007 4.4695e-006 -2.28127e-006 -4.63872e-006 2.71138e-006 -2.33091e-006 2.75677e-006 3.21087e-007 -1.47413e-006 -7.49477e-007 -11.1091 -8.15944 -13.4098 74.8066 -40.8505 16.9871 0.180451 50.0522 68.48 -17.4773 3.55865 -17.6121 -7.95139e-016 7.95139e-016 3.18055e-015 -2.82183e-006 -2.29745e-006 3.23075e-006 -6.22635e-006 2.82744e-006 -7.70717e-007 -7.95139e-016 2.38542e-015 3.18055e-015 5.56597e-015 1.59028e-015 1.59028e-014 -2.82183e-006 -2.29745e-006 3.23075e-006 -6.22635e-006 2.82744e-006 -7.70717e-007 5.56597e-015 1.59028e-015 1.59028e-014 -2.82183e-006 -2.29745e-006 3.23075e-006 -6.22635e-006 2.82744e-006 -7.70717e-007 -7.95139e-016 2.38542e-015 3.18055e-015 5.56597e-015 1.59028e-015 1.59028e-014 -2.82183e-006 -2.29745e-006 3.23075e-006 -6.22635e-006 2.82744e-006 -7.70717e-007 5.56597e-015 1.59028e-015 1.59028e-014 -2.82183e-006 -2.29745e-006 3.23075e-006 -6.22635e-006 2.82744e-006 -7.70717e-007 4.69625 -15.381 19.6894 19.9259 86.1211 -15.9289 -23.4407 57.6142 38.0549 -18.2678 -15.234 -20.0686 -19.7849 85.8288 15.7204 8.02731 66.2925 -16.3995 
8.05039 50.5381 7.38077 0 10.5995 -0 2.61008 4.46297 -1.10803 5.33062 8.86967 -2.43046 5.33062 8.86967 -2.43046 -9.91872 -31.7088 -5.31843 -0.0431517 -18.5336 -1.32239 -25.3138 -50.8929 -52.2144 -30.4082 -5.66569 0.121321 -21.2514 18.2527 -5.7248 -6.69373 -14.5464 37.7196 3.20248e-007 -1.4752e-006 -7.49045e-007 5.50906e-007 1.49809e-006 -2.9504e-006 -2.63015e-006 -2.1157e-006 -1.29995e-006 2.38542e-015 6.36111e-015 1.59028e-015 3.20248e-007 -1.4752e-006 -7.49045e-007 5.50906e-007 1.49809e-006 -2.9504e-006 -2.63015e-006 -2.1157e-006 -1.29995e-006 3.20248e-007 -1.4752e-006 -7.49045e-007 5.50906e-007 1.49809e-006 -2.9504e-006 -2.63015e-006 -2.1157e-006 -1.29995e-006 2.38542e-015 6.36111e-015 1.59028e-015 3.20248e-007 -1.4752e-006 -7.49045e-007 5.50906e-007 1.49809e-006 -2.9504e-006 -2.63015e-006 -2.1157e-006 -1.29995e-006 3.20248e-007 -1.4752e-006 -7.49045e-007 5.50906e-007 1.49809e-006 -2.9504e-006 -2.63015e-006 -2.1157e-006 -1.29995e-006 -12.4031 -8.91756 -14.8358 75.0095 -40.7275 16.7781 0.23275 50.3178 68.9637 -18.2367 2.14903 -17.5587 -3.97569e-015 7.95139e-015 3.18055e-015 7.95139e-016 7.95139e-015 -6.36111e-015 8.74653e-015 0 -3.18055e-015 -3.97569e-015 4.77083e-015 3.18055e-015 -1.51076e-014 3.18055e-015 1.27222e-014 -7.95139e-015 4.77083e-015 9.54166e-015 -4.77083e-015 1.59028e-015 3.18055e-015 -1.51076e-014 3.18055e-015 1.27222e-014 -7.95139e-015 4.77083e-015 9.54166e-015 -4.77083e-015 1.59028e-015 3.18055e-015 -3.97569e-015 4.77083e-015 3.18055e-015 -1.51076e-014 3.18055e-015 1.27222e-014 -7.95139e-015 4.77083e-015 9.54166e-015 -4.77083e-015 1.59028e-015 3.18055e-015 -1.51076e-014 3.18055e-015 1.27222e-014 -7.95139e-015 4.77083e-015 9.54166e-015 -4.77083e-015 1.59028e-015 3.18055e-015 4.43535 -13.4645 19.2918 15.9034 85.4818 -11.9392 -23.7461 57.6614 38.2253 -18.3986 -13.2916 -19.8721 -16.6574 85.2155 12.6338 6.98354 66.3873 -15.4736 
8.05243 50.6004 7.64507 0 9.40026 -0 2.63887 5.09148 -0.991366 5.39805 10.1308 -2.23125 5.39805 10.1308 -2.23126 -9.94377 -31.7363 -5.33389 -0.0424173 -18.7429 -1.31229 -26.1324 -52.8849 -53.4849 -30.6844 -5.68961 0.000333699 -21.7754 18.4619 -6.14894 -6.29364 -14.8271 38.0621 2.41084e-006 -1.35463e-006 3.4943e-006 8.64619e-007 2.11635e-008 -3.70094e-006 3.1912e-007 -1.47615e-006 -7.48654e-007 -3.97569e-015 3.18055e-015 -3.18055e-015 2.41084e-006 -1.35463e-006 3.4943e-006 8.64619e-007 2.11635e-008 -3.70094e-006 3.1912e-007 -1.47615e-006 -7.48654e-007 2.41084e-006 -1.35463e-006 3.4943e-006 8.64619e-007 2.11635e-008 -3.70094e-006 3.1912e-007 -1.47615e-006 -7.48654e-007 -3.97569e-015 3.18055e-015 -3.18055e-015 2.41084e-006 -1.35463e-006 3.4943e-006 8.64619e-007 2.11635e-008 -3.70094e-006 3.1912e-007 -1.47615e-006 -7.48654e-007 2.41084e-006 -1.35463e-006 3.4943e-006 8.64619e-007 2.11635e-008 -3.70094e-006 3.1912e-007 -1.47615e-006 -7.48654e-007 -13.5935 -9.56616 -16.135 75.1922 -40.6174 16.5897 0.277303 50.5574 69.4006 -18.9202 0.876958 -17.5278 -3.33241e-006 1.1268e-006 7.09962e-007 -5.64925e-006 1.22062e-006 1.22282e-006 7.82473e-007 2.99389e-006 -1.29313e-006 -3.97569e-015 1.59028e-015 6.36111e-015 -3.33241e-006 1.1268e-006 7.09962e-007 -5.64925e-006 1.22062e-006 1.22282e-006 7.82473e-007 2.99389e-006 -1.29313e-006 -3.33241e-006 1.1268e-006 7.09962e-007 -5.64925e-006 1.22062e-006 1.22282e-006 7.82473e-007 2.99389e-006 -1.29313e-006 -3.97569e-015 1.59028e-015 6.36111e-015 -3.33241e-006 1.1268e-006 7.09962e-007 -5.64925e-006 1.22062e-006 1.22282e-006 7.82473e-007 2.99389e-006 -1.29313e-006 -3.33241e-006 1.1268e-006 7.09962e-007 -5.64925e-006 1.22062e-006 1.22282e-006 7.82473e-007 2.99389e-006 -1.29313e-006 4.21094 -11.7341 18.9424 13.1549 84.8919 -9.21923 -24.022 57.7038 38.3796 -18.52 -11.5391 -19.691 -14.4618 84.6542 10.4744 6.03743 66.467 -14.6338 
8.05382 50.6606 7.90809 0 8.19983 -0 2.6644 5.72574 -0.87268 5.45753 11.4036 -2.02867 5.45752 11.4036 -2.02867 -9.96836 -31.7628 -5.3491 -0.0416473 -18.9522 -1.30218 -27.0685 -54.8668 -54.8679 -30.9607 -5.71294 -0.120771 -22.2985 18.6748 -6.57176 -5.8912 -15.1056 38.4071 5.40787e-007 1.49661e-006 -2.95409e-006 -3.97569e-015 -3.18055e-015 -0 1.17632e-006 -1.45748e-006 -4.45071e-006 -3.18055e-015 9.54166e-015 -1.59028e-015 5.40787e-007 1.49661e-006 -2.95409e-006 -7.15625e-015 3.18055e-015 3.18055e-015 1.17632e-006 -1.45748e-006 -4.45071e-006 5.40787e-007 1.49661e-006 -2.95409e-006 -7.15625e-015 3.18055e-015 3.18055e-015 1.17632e-006 -1.45748e-006 -4.45071e-006 -3.18055e-015 9.54166e-015 -1.59028e-015 5.40787e-007 1.49661e-006 -2.95409e-006 -7.15625e-015 3.18055e-015 3.18055e-015 1.17632e-006 -1.45748e-006 -4.45071e-006 5.40787e-007 1.49661e-006 -2.95409e-006 -7.15625e-015 3.18055e-015 3.18055e-015 1.17632e-006 -1.45748e-006 -4.45071e-006 -14.803 -10.1889 -17.4524 75.3752 -40.5077 16.4011 0.319151 50.7972 69.8396 -19.6039 -0.397238 -17.512 3.88016e-007 1.49752e-006 -6.46779e-007 2.57798e-007 -2.03964e-007 3.64182e-006 3.38306e-006 7.2149e-007 -1.29259e-006 -1.59028e-015 1.59028e-015 6.36111e-015 3.88016e-007 1.49752e-006 -6.46779e-007 2.57798e-007 -2.03964e-007 3.64182e-006 3.38306e-006 7.2149e-007 -1.29259e-006 3.88016e-007 1.49752e-006 -6.46779e-007 2.57798e-007 -2.03964e-007 3.64182e-006 3.38306e-006 7.2149e-007 -1.29259e-006 -1.59028e-015 1.59028e-015 6.36111e-015 3.88016e-007 1.49752e-006 -6.46779e-007 2.57798e-007 -2.03964e-007 3.64182e-006 3.38306e-006 7.2149e-007 -1.29259e-006 3.88016e-007 1.49752e-006 -6.46779e-007 2.57798e-007 -2.03964e-007 3.64182e-006 3.38306e-006 7.2149e-007 -1.29259e-006 3.99695 -10 18.6014 10.9805 84.2933 -7.07233 -24.2991 57.746 38.5351 -18.6457 -9.78372 -19.5074 -12.6864 84.0868 8.73454 5.08559 66.5411 -13.7885 
